<?xml version="1.0" encoding="utf-8"?>
<!-- Generator: Adobe Illustrator 25.3.0, SVG Export Plug-In . SVG Version: 6.00 Build 0)  -->
<svg version="1.1" id="Capa_1" xmlns="http://www.w3.org/2000/svg" xmlns:xlink="http://www.w3.org/1999/xlink" x="0px" y="0px"
	 viewBox="0 0 1000 1000" style="enable-background:new 0 0 1000 1000;" xml:space="preserve">
<style type="text/css">
	.st0{fill:f48f9;}
</style>
<g>
	<ellipse transform="matrix(0.8464 -0.5325 0.5325 0.8464 -8.5038 212.4233)" class="st0" cx="364" cy="121" rx="34.6" ry="33"/>
	<path class="st0" d="M292,191.4c14.9-11.9,19.6-30.9,10.5-42.4c-9.2-11.5-28.7-11.1-43.7,0.8c-14.9,11.9-19.6,30.9-10.5,42.4
		C257.5,203.7,277.1,203.3,292,191.4z"/>
	<path class="st0" d="M210.6,262.4c11.6-11.2,13.3-28.3,3.8-38.2c-9.5-9.9-26.7-8.8-38.3,2.3c-11.6,11.2-13.3,28.3-3.8,38.2
		C181.8,274.7,199,273.6,210.6,262.4z"/>
	
		<ellipse transform="matrix(0.4517 -0.8922 0.8922 0.4517 -230.0785 293.1591)" class="st0" cx="123.5" cy="333.8" rx="29.2" ry="20.6"/>
	<path class="st0" d="M88.7,458.1c10.2,2.6,21.2-5.6,24.5-18.3c3.3-12.7-2.3-25.3-12.5-27.9c-10.2-2.6-21.2,5.6-24.5,18.3
		C72.9,442.9,78.5,455.4,88.7,458.1z"/>
	<path class="st0" d="M83.2,567c9.4-1.3,15.7-11.4,14.2-22.6c-1.5-11.2-10.3-19.3-19.7-18c-9.4,1.3-15.7,11.4-14.2,22.6
		C65,560.2,73.9,568.3,83.2,567z"/>
	<path class="st0" d="M85.2,634.3c-6.7,0-12.2,7.5-12.2,16.7c0,9.2,5.6,16.6,12.3,16.6c6.7,0,12.2-7.5,12.2-16.7
		C97.5,641.7,92,634.3,85.2,634.3z"/>
	<path class="st0" d="M949.7,615.5c-0.5-19.1-15.7-34.2-33.9-33.7c-18.2,0.5-32.5,16.4-32,35.5c0.5,19.1,15.7,34.2,33.9,33.7
		C935.9,650.5,950.3,634.6,949.7,615.5z"/>
	
		<ellipse transform="matrix(0.9904 -0.1384 0.1384 0.9904 -62.3935 132.153)" class="st0" cx="919.3" cy="514.8" rx="26.6" ry="34.6"/>
	
		<ellipse transform="matrix(0.9734 -0.2291 0.2291 0.9734 -69.2842 216.4516)" class="st0" cx="897.5" cy="406.6" rx="24.9" ry="29.2"/>
	
		<ellipse transform="matrix(0.8433 -0.5374 0.5374 0.8433 -27.5594 507.361)" class="st0" cx="856.3" cy="300.9" rx="20.6" ry="29.2"/>
	
		<ellipse transform="matrix(0.7094 -0.7048 0.7048 0.7094 69.491 617.7424)" class="st0" cx="783.9" cy="224.6" rx="19.1" ry="23.9"/>
	<path class="st0" d="M688.3,171.2c10.4,4.4,21.9,0.9,25.5-7.7c3.7-8.7-1.8-19.3-12.2-23.8c-10.4-4.4-21.9-0.9-25.5,7.7
		C672.4,156.1,677.9,166.8,688.3,171.2z"/>
	<path class="st0" d="M596.7,117c7.9,4.6,17.1,3.7,20.5-2.1c3.4-5.8-0.2-14.3-8.2-19c-7.9-4.6-17.1-3.7-20.5,2.1
		C585.1,103.9,588.8,112.4,596.7,117z"/>
	
		<ellipse transform="matrix(0.5065 -0.8622 0.8622 0.5065 -600.7037 568.7915)" class="st0" cx="196.6" cy="809.2" rx="33" ry="34.6"/>
	
		<ellipse transform="matrix(0.4069 -0.9135 0.9135 0.4069 -623.265 770.0856)" class="st0" cx="281.4" cy="865" rx="26.6" ry="34.6"/>
	
		<ellipse transform="matrix(0.321 -0.9471 0.9471 0.321 -594.7655 978.1684)" class="st0" cx="384.8" cy="903.9" rx="24.9" ry="29.2"/>
	<path class="st0" d="M496,904.2c-16.1,0.2-29.2,9.5-29,20.9c0.1,11.4,13.3,20.5,29.4,20.3c16.1-0.2,29.2-9.5,29-20.9
		C525.3,913.2,512.1,904.1,496,904.2z"/>
	<path class="st0" d="M595.1,885.3c-12.8,2.9-21.4,13.7-19,23.9c2.3,10.3,14.7,16.2,27.5,13.3c12.8-2.9,21.4-13.7,19-23.9
		C620.2,888.3,607.9,882.3,595.1,885.3z"/>
	<ellipse transform="matrix(0.8191 -0.5737 0.5737 0.8191 -368.7061 560.999)" class="st0" cx="705" cy="865" rx="20.5" ry="17.1"/>
	<path class="st0" d="M789.7,802c-8.1,4.3-12.2,12.6-9.1,18.6c3.1,6,12.3,7.4,20.4,3.1c8.1-4.3,12.2-12.6,9.1-18.6
		C807,799.1,797.8,797.7,789.7,802z"/>
	<path class="st0" d="M898.9,712.6c-14.5-8.5-31.6-8.9-45.3-2.4L684.3,418l0,0l-165-284.8c15.1-7.7,25.5-22.9,25.4-40.4
		c-0.1-25.1-21.6-45.5-48.1-45.5c-26.4,0.1-47.8,20.6-47.8,45.7c0,13.8,6.6,26.2,16.9,34.6L297.5,418l0,0L126.9,712.5
		c-22.7-13.2-51.5-6.4-64.2,15.2C50,749.3,58.2,777.9,81,791.2c22.8,13.4,51.7,6.6,64.4-15.1c4.4-7.6,6.3-16,6-24.3h339.6h337.7
		c0.7,15.5,9.3,30.6,24.2,39.3c22.8,13.4,51.7,6.6,64.4-15.1C929.9,754.5,921.7,726,898.9,712.6z M664.1,429.7L664.1,429.7
		l169.2,292l-177.8-47.5L525.2,190L664.1,429.7z M408.7,574.1H307.6l185.5-184.9l-89.7,154.9l-5.8,10.1l10.1,5.8l3.1,1.8l21.3,12.3
		l40.6,23.4l9.8,5.6l80.6,46.4l-194.8-52h81L408.7,574.1z M543,611.1l-23.6-13.6l-40.6-23.4l-7.5-4.3l-41.9-24.1l106.5-183.8v212.2
		h-33.8l40.6,23.4h4.9h11.7v-11.7V407.1l67.9,252.5L543,611.1z M317.8,429.7L317.8,429.7l169.2-292l47.7,177.2L179,669.3
		L317.8,429.7z M490.9,728.5H152.7l130.1-129.7l485.7,129.7H490.9z"/>
</g>
</svg>
